<svg width="40.000000" height="20.000000" viewBox="0 0 40 20" fill="none" xmlns="http://www.w3.org/2000/svg" xmlns:xlink="http://www.w3.org/1999/xlink">
	<desc>
			Created with Pixso.
	</desc>
	<defs/>
	<path id="Vector" d="M39.08 1.35C39.36 0.57 39.08 0 37.76 0L33.39 0C32.27 0 31.76 0.49 31.49 1.04C31.49 1.04 29.26 5.61 26.11 8.57C25.09 9.43 24.63 9.7 24.07 9.7C23.79 9.7 23.37 9.43 23.37 8.64L23.37 1.35C23.37 0.41 23.06 0 22.14 0L15.26 0C14.56 0 14.15 0.43 14.15 0.84C14.15 1.73 15.72 1.93 15.89 4.43L15.89 9.86C15.89 11.05 15.63 11.26 15.08 11.26C13.59 11.26 9.98 6.68 7.84 1.43C7.41 0.41 6.99 0 5.87 0L1.49 0C0.25 0 0 0.49 0 1.04C0 2.01 1.48 6.86 6.91 13.26C10.52 17.63 15.62 20 20.25 20C23.04 20 23.38 19.47 23.38 18.56C23.38 14.39 23.13 14 24.52 14C25.17 14 26.28 14.27 28.88 16.38C31.85 18.88 32.34 20 34 20L38.38 20C39.63 20 40.26 19.47 39.89 18.43C39.06 16.25 33.44 11.76 33.19 11.46C32.54 10.76 32.73 10.45 33.19 9.83C33.19 9.82 38.53 3.5 39.08 1.35Z" fill="#FFFFFF" fill-opacity="1.000000" fill-rule="nonzero"/>
</svg>
