<svg width="40.000000" height="40.000000" viewBox="0 0 40 40" fill="none" xmlns="http://www.w3.org/2000/svg" xmlns:xlink="http://www.w3.org/1999/xlink">
	<desc>
			Created with Pixso.
	</desc>
	<defs/>
	<path id="Vector" d="M29.16 23.97C28.65 23.71 26.21 22.52 25.76 22.35C25.3 22.19 24.97 22.1 24.64 22.61C24.31 23.09 23.35 24.21 23.06 24.54C22.77 24.87 22.48 24.89 21.99 24.67C21.49 24.42 19.89 23.89 17.98 22.19C16.5 20.87 15.51 19.24 15.22 18.74C14.92 18.24 15.18 17.96 15.43 17.72C15.66 17.49 15.93 17.14 16.19 16.84C16.43 16.54 16.51 16.34 16.68 16.02C16.84 15.67 16.76 15.39 16.64 15.15C16.51 14.9 15.52 12.44 15.1 11.47C14.7 10.5 14.29 10.62 13.98 10.62C13.69 10.59 13.36 10.59 13.03 10.59C12.7 10.59 12.16 10.72 11.7 11.19C11.25 11.69 9.96 12.89 9.96 15.31C9.96 17.74 11.74 20.09 11.99 20.44C12.24 20.77 15.5 25.77 20.49 27.92C21.68 28.42 22.61 28.72 23.33 28.97C24.52 29.34 25.61 29.29 26.47 29.17C27.42 29.01 29.41 27.96 29.83 26.79C30.25 25.61 30.25 24.64 30.13 24.42C30 24.19 29.68 24.06 29.18 23.84L29.16 23.97ZM20.1 36.25L20.07 36.25C17.12 36.25 14.19 35.44 11.64 33.95L11.04 33.59L4.79 35.22L6.47 29.14L6.07 28.51C4.42 25.89 3.54 22.86 3.54 19.75C3.54 10.67 10.97 3.27 20.11 3.27C24.54 3.27 28.69 5 31.82 8.12C34.94 11.22 36.67 15.37 36.67 19.77C36.66 28.84 29.23 36.25 20.11 36.25L20.1 36.25ZM34.19 5.74C30.39 2.07 25.39 0 20.07 0C9.1 0 0.17 8.89 0.16 19.82C0.16 23.31 1.08 26.71 2.82 29.73L0 40L10.56 37.24C13.47 38.81 16.74 39.65 20.07 39.66L20.08 39.66C31.06 39.66 39.99 30.76 40 19.83C40 14.53 37.93 9.55 34.17 5.81L34.19 5.74Z" fill="#FFFFFF" fill-opacity="1.000000" fill-rule="nonzero"/>
</svg>
